HIERARCHY
ROOT Hips
{
	OFFSET 0.000000 0.000000 0.000000
	CHANNELS 6 Xposition Yposition Zposition Zrotation Yrotation Xrotation 
	JOINT Spine1
	{
		OFFSET -0.013727 5.003763 -0.053727
		CHANNELS 3 Zrotation Yrotation Xrotation
		JOINT Spine2
		{
			OFFSET -0.000000 7.125302 -0.029825
			CHANNELS 3 Zrotation Yrotation Xrotation
			JOINT Chest
			{
				OFFSET -0.000001 7.550062 -0.815971
				CHANNELS 3 Zrotation Yrotation Xrotation
				JOINT Neck1
				{
					OFFSET -0.181677 26.311296 -0.553349
					CHANNELS 3 Zrotation Yrotation Xrotation
					JOINT Neck2
					{
						OFFSET -0.000003 7.709397 2.302586
						CHANNELS 3 Zrotation Yrotation Xrotation
						JOINT Head
						{
							OFFSET -0.000005 6.128914 1.953709
							CHANNELS 3 Zrotation Yrotation Xrotation
							JOINT HeadEnd
							{
								OFFSET 0.003598 16.065401 -1.835379
								CHANNELS 3 Zrotation Yrotation Xrotation
								End Site
								{
									OFFSET 0.000000 0.000000 0.000000
								}
							}
							JOINT Jaw
							{
								OFFSET 0.002637 0.475591 3.094941
								CHANNELS 3 Zrotation Yrotation Xrotation
								End Site
								{
									OFFSET 0.000000 0.000000 0.000000
								}
							}
							JOINT LeftEye
							{
								OFFSET 3.206381 5.380208 7.586883
								CHANNELS 3 Zrotation Yrotation Xrotation
								End Site
								{
									OFFSET 0.000000 0.000000 0.000000
								}
							}
							JOINT RightEye
							{
								OFFSET -3.222440 5.361867 7.558234
								CHANNELS 3 Zrotation Yrotation Xrotation
								End Site
								{
									OFFSET 0.000000 0.000000 0.000000
								}
							}
						}
					}
				}
				JOINT LeftShoulder
				{
					OFFSET 1.621652 23.237164 5.113413
					CHANNELS 3 Zrotation Yrotation Xrotation
					JOINT LeftArm
					{
						OFFSET 14.919845 -0.000000 -5.502326
						CHANNELS 3 Zrotation Yrotation Xrotation
						JOINT LeftForeArm
						{
							OFFSET 28.739313 0.000002 -0.002587
							CHANNELS 3 Zrotation Yrotation Xrotation
							JOINT LeftHand
							{
								OFFSET 27.093979 -0.000002 0.002609
								CHANNELS 3 Zrotation Yrotation Xrotation
								JOINT LeftHandThumb1
								{
									OFFSET 2.276480 -1.392045 3.191413
									CHANNELS 3 Zrotation Yrotation Xrotation
									JOINT LeftHandThumb2
									{
										OFFSET 4.012840 -1.828127 1.641654
										CHANNELS 3 Zrotation Yrotation Xrotation
										JOINT LeftHandThumb3
										{
											OFFSET 2.798516 0.000003 -0.000003
											CHANNELS 3 Zrotation Yrotation Xrotation
											JOINT LeftHandThumbEnd
											{
												OFFSET 3.180791 -0.000001 0.000003
												CHANNELS 3 Zrotation Yrotation Xrotation
												End Site
												{
													OFFSET 0.000000 0.000000 0.000000
												}
											}
										}
									}
								}
								JOINT LeftHandIndex1
								{
									OFFSET 3.247553 -0.531999 2.296168
									CHANNELS 3 Zrotation Yrotation Xrotation
									JOINT LeftHandIndex2
									{
										OFFSET 6.364580 0.012063 0.178600
										CHANNELS 3 Zrotation Yrotation Xrotation
										JOINT LeftHandIndex3
										{
											OFFSET 3.662366 0.000001 0.000000
											CHANNELS 3 Zrotation Yrotation Xrotation
											JOINT LeftHandIndex4
											{
												OFFSET 2.329242 0.000003 0.000004
												CHANNELS 3 Zrotation Yrotation Xrotation
												JOINT LeftHandIndexEnd
												{
													OFFSET 2.759619 -0.180540 -0.113024
													CHANNELS 3 Zrotation Yrotation Xrotation
													End Site
													{
														OFFSET 0.000000 0.000000 0.000000
													}
												}
											}
										}
									}
								}
								JOINT LeftHandMiddle1
								{
									OFFSET 3.163499 0.240982 1.000332
									CHANNELS 3 Zrotation Yrotation Xrotation
									JOINT LeftHandMiddle2
									{
										OFFSET 6.190777 -0.259276 -1.002549
										CHANNELS 3 Zrotation Yrotation Xrotation
										JOINT LeftHandMiddle3
										{
											OFFSET 4.356522 -0.000006 -0.000000
											CHANNELS 3 Zrotation Yrotation Xrotation
											JOINT LeftHandMiddle4
											{
												OFFSET 2.996875 -0.000006 0.000001
												CHANNELS 3 Zrotation Yrotation Xrotation
												JOINT LeftHandMiddleEnd
												{
													OFFSET 2.304294 -0.294571 -0.031740
													CHANNELS 3 Zrotation Yrotation Xrotation
													End Site
													{
														OFFSET 0.000000 0.000000 0.000000
													}
												}
											}
										}
									}
								}
								JOINT LeftHandRing1
								{
									OFFSET 2.882642 -0.053650 -0.322542
									CHANNELS 3 Zrotation Yrotation Xrotation
									JOINT LeftHandRing2
									{
										OFFSET 5.854542 -0.486204 -1.373841
										CHANNELS 3 Zrotation Yrotation Xrotation
										JOINT LeftHandRing3
										{
											OFFSET 4.350580 -0.000000 0.000003
											CHANNELS 3 Zrotation Yrotation Xrotation
											JOINT LeftHandRing4
											{
												OFFSET 2.651325 0.000008 0.000001
												CHANNELS 3 Zrotation Yrotation Xrotation
												JOINT LeftHandRingEnd
												{
													OFFSET 1.936111 0.077684 -0.000070
													CHANNELS 3 Zrotation Yrotation Xrotation
													End Site
													{
														OFFSET 0.000000 0.000000 0.000000
													}
												}
											}
										}
									}
								}
								JOINT LeftHandPinky1
								{
									OFFSET 2.865499 -0.310004 -1.600378
									CHANNELS 3 Zrotation Yrotation Xrotation
									JOINT LeftHandPinky2
									{
										OFFSET 5.087852 -1.331142 -1.771231
										CHANNELS 3 Zrotation Yrotation Xrotation
										JOINT LeftHandPinky3
										{
											OFFSET 3.070975 0.000003 0.000000
											CHANNELS 3 Zrotation Yrotation Xrotation
											JOINT LeftHandPinky4
											{
												OFFSET 1.549668 -0.000000 0.000001
												CHANNELS 3 Zrotation Yrotation Xrotation
												JOINT LeftHandPinkyEnd
												{
													OFFSET 1.944895 -0.157802 0.057219
													CHANNELS 3 Zrotation Yrotation Xrotation
													End Site
													{
														OFFSET 0.000000 0.000000 0.000000
													}
												}
											}
										}
									}
								}
							}
						}
					}
				}
				JOINT RightShoulder
				{
					OFFSET -1.380118 23.180309 5.214158
					CHANNELS 3 Zrotation Yrotation Xrotation
					JOINT RightArm
					{
						OFFSET -15.037197 0.000011 -5.545604
						CHANNELS 3 Zrotation Yrotation Xrotation
						JOINT RightForeArm
						{
							OFFSET -28.736639 0.000003 -0.002597
							CHANNELS 3 Zrotation Yrotation Xrotation
							JOINT RightHand
							{
								OFFSET -27.133619 -0.000001 0.002612
								CHANNELS 3 Zrotation Yrotation Xrotation
								JOINT RightHandThumb1
								{
									OFFSET -2.274037 -1.383991 3.163128
									CHANNELS 3 Zrotation Yrotation Xrotation
									JOINT RightHandThumb2
									{
										OFFSET -4.011429 -1.827468 1.640915
										CHANNELS 3 Zrotation Yrotation Xrotation
										JOINT RightHandThumb3
										{
											OFFSET -2.794934 -0.000005 -0.000004
											CHANNELS 3 Zrotation Yrotation Xrotation
											JOINT RightHandThumbEnd
											{
												OFFSET -3.183855 0.000003 -0.000000
												CHANNELS 3 Zrotation Yrotation Xrotation
												End Site
												{
													OFFSET 0.000000 0.000000 0.000000
												}
											}
										}
									}
								}
								JOINT RightHandIndex1
								{
									OFFSET -3.253270 -0.520059 2.282866
									CHANNELS 3 Zrotation Yrotation Xrotation
									JOINT RightHandIndex2
									{
										OFFSET -6.341918 0.012473 0.178265
										CHANNELS 3 Zrotation Yrotation Xrotation
										JOINT RightHandIndex3
										{
											OFFSET -3.654875 -0.000009 -0.000001
											CHANNELS 3 Zrotation Yrotation Xrotation
											JOINT RightHandIndex4
											{
												OFFSET -2.327587 -0.000000 0.000001
												CHANNELS 3 Zrotation Yrotation Xrotation
												JOINT RightHandIndexEnd
												{
													OFFSET -2.761789 -0.180657 -0.113078
													CHANNELS 3 Zrotation Yrotation Xrotation
													End Site
													{
														OFFSET 0.000000 0.000000 0.000000
													}
												}
											}
										}
									}
								}
								JOINT RightHandMiddle1
								{
									OFFSET -3.168106 0.246593 1.001030
									CHANNELS 3 Zrotation Yrotation Xrotation
									JOINT RightHandMiddle2
									{
										OFFSET -6.180830 -0.258836 -1.000896
										CHANNELS 3 Zrotation Yrotation Xrotation
										JOINT RightHandMiddle3
										{
											OFFSET -4.348906 0.000000 0.000000
											CHANNELS 3 Zrotation Yrotation Xrotation
											JOINT RightHandMiddle4
											{
												OFFSET -3.000242 -0.000004 -0.000002
												CHANNELS 3 Zrotation Yrotation Xrotation
												JOINT RightHandMiddleEnd
												{
													OFFSET -2.302518 -0.294372 -0.031706
													CHANNELS 3 Zrotation Yrotation Xrotation
													End Site
													{
														OFFSET 0.000000 0.000000 0.000000
													}
												}
											}
										}
									}
								}
								JOINT RightHandRing1
								{
									OFFSET -2.885693 -0.067952 -0.308858
									CHANNELS 3 Zrotation Yrotation Xrotation
									JOINT RightHandRing2
									{
										OFFSET -5.854197 -0.486132 -1.373732
										CHANNELS 3 Zrotation Yrotation Xrotation
										JOINT RightHandRing3
										{
											OFFSET -4.338814 -0.000004 -0.000000
											CHANNELS 3 Zrotation Yrotation Xrotation
											JOINT RightHandRing4
											{
												OFFSET -2.654906 -0.000003 0.000003
												CHANNELS 3 Zrotation Yrotation Xrotation
												JOINT RightHandRingEnd
												{
													OFFSET -1.933571 0.077524 -0.000052
													CHANNELS 3 Zrotation Yrotation Xrotation
													End Site
													{
														OFFSET 0.000000 0.000000 0.000000
													}
												}
											}
										}
									}
								}
								JOINT RightHandPinky1
								{
									OFFSET -2.866430 -0.342798 -1.584145
									CHANNELS 3 Zrotation Yrotation Xrotation
									JOINT RightHandPinky2
									{
										OFFSET -5.091369 -1.332054 -1.772385
										CHANNELS 3 Zrotation Yrotation Xrotation
										JOINT RightHandPinky3
										{
											OFFSET -3.062667 -0.000006 0.000001
											CHANNELS 3 Zrotation Yrotation Xrotation
											JOINT RightHandPinky4
											{
												OFFSET -1.546526 0.000005 -0.000002
												CHANNELS 3 Zrotation Yrotation Xrotation
												JOINT RightHandPinkyEnd
												{
													OFFSET -1.945122 -0.157721 0.057211
													CHANNELS 3 Zrotation Yrotation Xrotation
													End Site
													{
														OFFSET 0.000000 0.000000 0.000000
													}
												}
											}
										}
									}
								}
							}
						}
					}
				}
			}
		}
	}
	JOINT LeftLeg
	{
		OFFSET 10.043214 -8.434526 2.595655
		CHANNELS 3 Zrotation Yrotation Xrotation
		JOINT LeftShin
		{
			OFFSET -0.000002 -43.221752 -0.802913
			CHANNELS 3 Zrotation Yrotation Xrotation
			JOINT LeftFoot
			{
				OFFSET 0.000001 -42.155094 -3.481523
				CHANNELS 3 Zrotation Yrotation Xrotation
				JOINT LeftToeBase
				{
					OFFSET 0.000000 -5.059474 13.231529
					CHANNELS 3 Zrotation Yrotation Xrotation
					JOINT LeftToeEnd
					{
						OFFSET -0.009607 -1.647615 6.513017
						CHANNELS 3 Zrotation Yrotation Xrotation
						End Site
						{
							OFFSET 0.000000 0.000000 0.000000
						}
					}
				}
			}
		}
	}
	JOINT RightLeg
	{
		OFFSET -10.047277 -8.295259 2.620317
		CHANNELS 3 Zrotation Yrotation Xrotation
		JOINT RightShin
		{
			OFFSET 0.000000 -43.362213 -0.805555
			CHANNELS 3 Zrotation Yrotation Xrotation
			JOINT RightFoot
			{
				OFFSET 0.000003 -42.117393 -3.478399
				CHANNELS 3 Zrotation Yrotation Xrotation
				JOINT RightToeBase
				{
					OFFSET -0.000001 -5.079609 13.284196
					CHANNELS 3 Zrotation Yrotation Xrotation
					JOINT RightToeEnd
					{
						OFFSET 0.009532 -1.634383 6.460591
						CHANNELS 3 Zrotation Yrotation Xrotation
						End Site
						{
							OFFSET 0.000000 0.000000 0.000000
						}
					}
				}
			}
		}
	}
}
MOTION
Frames: 4
Frame Time: 0.033333
-0.114427 87.591873 -0.176888 0.880894 0.430402 -1.371742 -0.723005 0.060823 7.663037 -0.776528 -0.530117 -1.632660 -0.512474 -2.208558 13.600954 15.958543 -6.117158 14.811847 -3.860177 -11.062639 -3.512253 1.444659 -13.645630 -6.981956 0.000077 -0.000023 0.000005 0.050847 -0.113196 -0.079346 0.746124 -3.837710 -10.663782 -0.669660 3.636512 -10.675918 -3.848345 -5.880965 12.536077 -56.929119 -25.702929 8.562858 -177.758698 -54.223675 178.233307 7.600912 7.815594 41.039177 -5.882101 9.861278 0.702589 -10.936859 -0.360574 7.156196 0.000001 8.774814 0.000000 -16.010532 18.158524 6.034346 -1.844030 2.498503 -2.507277 -10.163589 4.678937 4.621102 -20.975998 -0.000004 0.000001 -21.226255 2.451690 -3.593996 0.000000 -0.000006 -0.000003 -1.362680 2.240795 -0.746322 -21.334892 0.584909 3.008320 -13.821197 -0.000002 0.000003 -23.887133 -0.249079 -0.839482 -59.886166 2.775290 -0.982190 -0.294024 1.679685 0.833254 -14.218194 0.093214 1.300579 -34.212006 -0.287564 0.967169 -20.033180 0.964534 1.212841 0.000001 0.000000 -0.000001 -3.440384 0.788232 0.501654 -15.928169 -3.167305 2.999702 -6.338816 -0.000001 0.000001 -18.123415 3.648177 -4.905662 -0.000003 0.000002 -0.000003 14.661983 12.914529 11.995893 48.730942 8.345101 -51.249680 -8.102907 79.887764 -7.766029 -39.381832 6.256906 7.020691 2.243538 -5.255033 -3.180155 14.282875 -0.826593 6.952494 -0.000001 -12.690590 -0.000002 16.963985 -17.144804 2.156962 1.665666 -1.955920 -2.878295 4.727793 -4.170583 4.993918 11.020509 0.000004 0.000001 12.109032 -3.735710 -2.866780 0.000001 0.000001 0.000000 1.291983 -1.928547 -1.498088 14.800113 0.567469 3.865606 14.242553 -1.341733 -6.660649 19.631937 0.143924 -0.648243 49.517979 -0.300816 -6.578797 0.353029 -1.511148 -0.031941 20.222765 3.684307 2.316629 18.787245 0.000005 0.000001 10.751610 -0.479866 1.397905 0.000001 -0.000001 -0.000000 3.273805 0.305946 -0.580109 21.486788 11.830361 2.266133 8.162916 -0.000000 0.000000 18.399052 -3.798980 -4.940566 0.000003 -0.000001 -0.000001 22.512522 29.250273 -10.235021 -0.356138 -0.899514 47.989590 -23.354422 0.534304 -23.471926 1.662880 -1.810436 -0.745131 0.000000 -0.000001 0.000002 -10.329244 -28.927954 -39.848923 0.288577 0.351758 48.837597 9.776451 -10.674439 -3.454719 -1.412445 0.952895 0.741189 0.000000 0.000001 -0.000001 
-0.305306 87.612686 -0.083231 0.911161 0.349512 -1.298388 -0.727579 0.050275 7.632927 -0.759800 -0.517672 -1.633208 -0.559337 -2.270715 13.661376 16.034073 -6.045847 14.700336 -3.939065 -11.093940 -3.506729 1.356656 -13.576597 -7.013767 0.000077 -0.000022 0.000006 0.043656 -0.083486 -0.069340 0.733078 -3.821702 -10.657283 -0.663894 3.644400 -10.672671 -3.804045 -5.873069 12.477590 -56.905842 -25.683004 8.657786 -178.031662 -54.330067 178.348969 7.379374 7.871867 40.852020 -5.882099 9.861278 0.702590 -10.936856 -0.360575 7.156196 0.000001 8.774814 -0.000001 -16.054623 18.142546 6.006607 -1.844031 2.498503 -2.507275 -10.163588 4.678940 4.621104 -20.975992 -0.000006 0.000001 -21.226255 2.451689 -3.593994 -0.000001 -0.000006 -0.000002 -1.362679 2.240798 -0.746325 -21.334887 0.584907 3.008321 -13.821194 -0.000003 0.000002 -23.887123 -0.249078 -0.839481 -59.949272 2.700475 -0.929324 -0.294024 1.679686 0.833255 -14.218190 0.093214 1.300579 -34.212002 -0.287565 0.967169 -20.033176 0.964536 1.212840 0.000000 0.000001 0.000000 -3.440383 0.788234 0.501655 -15.928164 -3.167306 2.999703 -6.338814 0.000000 0.000002 -18.123413 3.648176 -4.905661 -0.000003 0.000002 -0.000003 14.579350 12.917791 11.973984 48.657513 8.316640 -51.210087 -6.713195 79.730392 -6.387557 -39.745075 6.238113 6.836917 2.243539 -5.255032 -3.180156 14.282878 -0.826594 6.952500 -0.000002 -12.690587 0.000000 16.996519 -17.108784 2.126489 1.665665 -1.955921 -2.878296 4.727796 -4.170581 4.993921 11.020512 0.000002 -0.000002 12.109033 -3.735710 -2.866777 0.000001 0.000000 -0.000001 1.291984 -1.928548 -1.498089 14.800111 0.567467 3.865606 14.242553 -1.341735 -6.660648 19.631939 0.143923 -0.648241 49.529514 -0.278127 -6.581391 0.353028 -1.511149 -0.031940 20.222767 3.684305 2.316628 18.787247 0.000003 -0.000001 10.751611 -0.479868 1.397903 0.000001 -0.000001 -0.000000 3.273804 0.305947 -0.580110 21.486790 11.830358 2.266132 8.162920 0.000002 -0.000000 18.399055 -3.798980 -4.940567 0.000003 -0.000001 -0.000000 22.576742 29.214609 -10.098236 -0.336357 -0.912164 47.704315 -23.421064 0.728006 -23.344189 1.658021 -1.839783 -0.838964 -0.000000 -0.000001 0.000002 -10.184780 -28.751936 -40.001247 0.273515 0.311518 48.992580 9.762551 -10.508642 -3.639143 -1.414200 0.944432 0.674800 -0.000000 0.000001 -0.000001 
-0.440085 87.625191 0.041441 0.942561 0.328070 -1.217877 -0.719700 0.047607 7.583260 -0.757078 -0.551733 -1.629493 -0.577271 -2.340307 13.687672 16.080866 -5.979014 14.653178 -3.975005 -11.095996 -3.515823 1.243594 -13.490868 -7.074388 0.000078 -0.000023 0.000005 0.051400 -0.108657 -0.063958 0.729901 -3.844610 -10.648541 -0.649760 3.639178 -10.669915 -3.758725 -5.898978 12.446860 -56.792377 -25.662861 8.616978 -178.201233 -54.442017 178.373123 7.166761 7.957481 40.625557 -5.882101 9.861278 0.702589 -10.936859 -0.360573 7.156198 0.000001 8.774813 -0.000001 -16.123373 18.116022 5.956282 -1.844030 2.498503 -2.507279 -10.163589 4.678942 4.621106 -20.975994 -0.000005 0.000004 -21.226250 2.451692 -3.593993 -0.000001 -0.000006 -0.000002 -1.362679 2.240796 -0.746323 -21.334888 0.584910 3.008321 -13.821197 -0.000003 0.000002 -23.887131 -0.249079 -0.839481 -60.019253 2.678001 -0.921480 -0.294024 1.679688 0.833255 -14.218190 0.093214 1.300579 -34.212006 -0.287565 0.967172 -20.033176 0.964535 1.212842 0.000001 0.000001 0.000000 -3.440386 0.788232 0.501655 -15.928165 -3.167302 2.999704 -6.338815 0.000001 0.000003 -18.123411 3.648178 -4.905662 -0.000003 0.000002 -0.000003 14.581420 12.900808 11.936719 48.532677 8.157553 -51.150356 -5.354649 79.615616 -4.994613 -40.166470 6.284530 6.866437 2.243539 -5.255032 -3.180154 14.282878 -0.826594 6.952497 -0.000003 -12.690590 0.000001 17.031954 -17.065327 2.107532 1.665666 -1.955919 -2.878296 4.727793 -4.170583 4.993920 11.020513 0.000003 -0.000001 12.109033 -3.735708 -2.866780 0.000001 0.000001 -0.000001 1.291985 -1.928547 -1.498088 14.800117 0.567467 3.865602 14.242554 -1.341733 -6.660649 19.631941 0.143926 -0.648242 49.577122 -0.337387 -6.506906 0.353027 -1.511148 -0.031941 20.222771 3.684305 2.316628 18.787245 0.000003 -0.000001 10.751611 -0.479867 1.397905 0.000000 0.000000 -0.000000 3.273805 0.305948 -0.580110 21.486795 11.830367 2.266128 8.162915 -0.000001 -0.000000 18.399054 -3.798980 -4.940566 0.000002 -0.000001 0.000001 22.642540 29.225733 -9.976450 -0.332094 -0.900407 47.474503 -23.486225 0.750921 -23.236921 1.654118 -1.859766 -0.877693 0.000000 0.000001 0.000002 -10.119061 -28.726862 -40.110722 0.276961 0.294076 49.196327 9.723189 -10.350290 -3.802594 -1.413778 0.953106 0.622146 -0.000000 -0.000000 -0.000001 
-0.592397 87.612686 0.122564 0.971370 0.308235 -1.149769 -0.698512 0.030713 7.551557 -0.766523 -0.575366 -1.608886 -0.560684 -2.444098 13.690042 16.092840 -5.911230 14.572023 -4.002090 -11.080454 -3.521608 1.135341 -13.423294 -7.082168 0.000077 -0.000021 0.000007 0.048861 -0.101611 -0.065288 0.715876 -3.827945 -10.639567 -0.639093 3.647416 -10.665617 -3.665860 -5.942523 12.386725 -56.668716 -25.597721 8.559722 -178.311508 -54.567791 178.439926 7.058558 7.950249 40.314953 -5.882100 9.861279 0.702589 -10.936859 -0.360576 7.156197 0.000001 8.774814 -0.000002 -16.164402 18.099070 5.934946 -1.844029 2.498504 -2.507276 -10.163589 4.678938 4.621104 -20.975994 -0.000005 0.000003 -21.226254 2.451693 -3.593992 -0.000001 -0.000006 -0.000002 -1.362680 2.240795 -0.746324 -21.334896 0.584910 3.008319 -13.821197 -0.000002 0.000003 -23.887133 -0.249080 -0.839480 -60.084099 2.718168 -0.932544 -0.294025 1.679685 0.833255 -14.218194 0.093216 1.300580 -34.212002 -0.287566 0.967169 -20.033178 0.964534 1.212843 0.000000 0.000000 0.000000 -3.440384 0.788231 0.501654 -15.928167 -3.167306 2.999705 -6.338815 -0.000001 0.000003 -18.123413 3.648175 -4.905660 -0.000004 0.000003 -0.000003 14.615346 12.858492 11.857534 48.346882 7.955371 -51.095993 -4.242391 79.525795 -3.899535 -40.468071 6.320713 7.122302 2.243541 -5.255032 -3.180156 14.282875 -0.826593 6.952496 -0.000003 -12.690590 -0.000001 17.056944 -17.017141 2.088013 1.665665 -1.955920 -2.878296 4.727795 -4.170583 4.993917 11.020513 0.000003 -0.000001 12.109034 -3.735709 -2.866778 0.000001 0.000000 -0.000001 1.291984 -1.928548 -1.498089 14.800109 0.567467 3.865603 14.242551 -1.341734 -6.660652 19.631939 0.143926 -0.648244 49.609577 -0.387744 -6.428348 0.353028 -1.511149 -0.031941 20.222767 3.684304 2.316626 18.787249 0.000007 -0.000002 10.751610 -0.479868 1.397903 0.000000 0.000000 -0.000000 3.273804 0.305948 -0.580110 21.486788 11.830363 2.266133 8.162916 0.000001 -0.000001 18.399052 -3.798979 -4.940568 0.000003 0.000000 -0.000001 22.730247 29.300301 -9.910856 -0.340403 -0.918736 47.331272 -23.531374 0.668690 -23.124702 1.650261 -1.861499 -0.888724 -0.000000 0.000000 0.000002 -10.046500 -28.767939 -40.200523 0.284148 0.279913 49.378017 9.691046 -10.207141 -4.078183 -1.413091 0.943866 0.633039 -0.000000 -0.000000 -0.000001 
